<?xml version="1.0" standalone="no"?>
<!DOCTYPE svg PUBLIC "-//W3C//DTD SVG 20010904//EN"
 "http://www.w3.org/TR/2001/REC-SVG-20010904/DTD/svg10.dtd">
<svg version="1.0" xmlns="http://www.w3.org/2000/svg"
 width="2000.000000pt" height="2000.000000pt" viewBox="0 0 2000.000000 2000.000000"
 preserveAspectRatio="xMidYMid meet">
<metadata>
Created by potrace 1.14, written by Peter Selinger 2001-2017
</metadata>
<g transform="translate(0.000000,2000.000000) scale(0.100000,-0.100000)"
fill="#000000" stroke="none">
<path d="M9388 13585 c-2 -2 -113 -6 -248 -10 -362 -10 -613 -22 -870 -40 -36
-2 -108 -7 -160 -10 -103 -6 -185 -12 -270 -20 -30 -2 -84 -7 -120 -10 -107
-9 -182 -15 -230 -20 -25 -2 -74 -7 -110 -11 -36 -3 -76 -7 -90 -9 -14 -2 -59
-6 -100 -10 -41 -3 -86 -8 -100 -10 -14 -2 -52 -7 -85 -10 -33 -3 -69 -7 -80
-9 -11 -2 -49 -7 -85 -11 -36 -3 -76 -8 -90 -10 -14 -2 -50 -7 -80 -10 -30 -3
-82 -10 -115 -15 -33 -5 -85 -12 -115 -15 -79 -10 -91 -12 -130 -19 -39 -6
-96 -14 -155 -22 -22 -2 -65 -9 -95 -14 -83 -14 -111 -19 -155 -25 -22 -3 -62
-10 -90 -15 -27 -5 -66 -12 -85 -14 -19 -3 -46 -8 -60 -10 -14 -3 -77 -14
-140 -26 -63 -11 -126 -22 -140 -25 -14 -3 -50 -9 -80 -15 -30 -5 -66 -12 -80
-15 -14 -2 -34 -7 -45 -9 -339 -69 -631 -134 -860 -192 -137 -35 -156 -40
-193 -48 -37 -8 -114 -29 -266 -73 -88 -25 -164 -46 -170 -47 -6 -1 -51 -15
-101 -31 -49 -16 -97 -30 -105 -31 -37 -7 -636 -211 -685 -233 -11 -5 -54 -21
-95 -36 -414 -152 -943 -404 -1315 -628 -96 -57 -405 -263 -415 -277 -3 -3
-34 -28 -70 -55 -120 -92 -191 -155 -330 -294 -330 -330 -510 -652 -565 -1011
-13 -81 -13 -332 -1 -390 42 -200 75 -299 146 -440 150 -298 397 -578 766
-867 83 -65 350 -253 359 -253 3 0 36 -20 73 -44 62 -39 134 -81 277 -161 541
-301 1322 -609 2130 -840 88 -26 167 -48 175 -50 8 -2 94 -24 190 -50 96 -25
185 -48 196 -50 22 -5 275 -65 379 -90 33 -8 85 -20 115 -25 94 -19 102 -21
175 -37 80 -17 245 -51 290 -58 37 -7 193 -36 220 -41 37 -7 200 -36 230 -40
17 -3 80 -13 140 -24 92 -16 188 -30 425 -65 14 -2 50 -7 80 -11 30 -4 57 -8
60 -9 3 -1 34 -5 70 -10 36 -5 67 -9 70 -10 3 -1 41 -5 85 -9 44 -5 89 -10 99
-12 11 -2 42 -6 70 -9 28 -3 62 -8 76 -10 14 -2 54 -6 90 -10 36 -3 83 -8 105
-11 22 -3 56 -7 75 -9 19 -2 64 -7 100 -10 36 -3 81 -8 100 -10 35 -5 74 -8
225 -20 44 -3 96 -8 115 -10 19 -2 71 -7 115 -10 44 -3 105 -8 135 -10 30 -2
93 -7 140 -10 47 -3 117 -7 155 -10 151 -10 235 -15 360 -20 72 -3 164 -8 205
-10 520 -27 1747 -27 2340 0 295 13 509 25 555 29 22 3 94 7 160 11 66 3 131
8 145 10 14 2 70 6 125 10 55 4 111 8 125 10 14 2 68 6 120 10 52 3 106 8 120
10 14 2 54 6 90 10 36 3 81 8 100 10 19 3 64 7 100 10 36 3 81 7 100 10 19 3
57 7 84 10 26 2 65 7 85 9 20 3 95 12 166 21 150 18 164 20 265 34 41 6 91 13
110 15 46 5 378 54 410 61 13 2 42 7 65 10 22 3 63 10 90 15 28 5 66 12 85 14
19 3 44 7 55 9 34 7 88 16 130 23 22 3 42 7 45 9 3 2 26 6 50 10 25 3 158 29
295 57 138 27 259 51 270 53 11 2 52 11 90 20 39 9 79 19 90 21 98 18 608 146
810 203 265 74 323 91 350 101 17 7 41 14 53 16 73 14 832 281 947 334 24 11
47 20 50 20 3 0 25 9 49 19 23 11 67 30 97 41 29 12 77 32 106 46 29 13 79 36
111 50 312 141 768 393 974 538 32 23 80 57 108 76 28 19 63 45 78 57 236 186
227 178 398 349 301 302 473 593 545 925 17 80 23 137 23 249 1 134 -6 236
-18 271 -3 8 -8 26 -11 42 -12 64 -17 80 -46 164 -61 172 -171 364 -309 538
-86 108 -323 342 -445 440 -55 43 -102 82 -105 85 -27 33 -458 315 -595 390
-33 18 -80 44 -105 58 -113 63 -330 171 -486 242 -239 109 -466 202 -779 318
-83 31 -499 171 -525 177 -8 2 -60 18 -115 35 -208 65 -801 225 -948 255 -10
2 -26 6 -35 9 -9 3 -28 7 -42 10 -14 3 -34 7 -45 10 -221 52 -756 161 -890
182 -11 1 -45 8 -75 14 -84 16 -493 83 -584 95 -27 3 -52 8 -55 9 -3 2 -40 7
-81 11 -41 4 -77 8 -80 10 -3 2 -30 6 -60 10 -30 3 -62 8 -70 10 -8 2 -40 6
-70 10 -30 3 -71 8 -90 10 -19 2 -59 7 -89 11 -30 3 -62 7 -72 9 -9 2 -46 6
-81 10 -34 3 -74 7 -88 9 -14 2 -55 7 -92 10 -37 4 -77 9 -90 11 -13 2 -57 6
-98 9 -41 4 -84 8 -95 10 -11 2 -58 7 -105 11 -47 3 -101 8 -120 10 -19 2 -71
6 -115 9 -44 4 -102 9 -130 12 -63 6 -129 11 -275 19 -63 4 -131 9 -150 10
-32 4 -130 9 -355 20 -106 6 -331 15 -480 21 -138 6 -1502 14 -1507 9z"/>
</g>
</svg>
